<svg xmlns="http://www.w3.org/2000/svg" width="147" height="26" viewBox="0 0 147 26">
    <g fill="none" fill-rule="evenodd">
        <g fill="#FFF" fill-rule="nonzero">
            <g>
                <path d="M76.76 12.047c-1.17 0-2.01-.254-2.502-.753-.25-.236-.4-.56-.42-.903 0-.01-.063-1.015.626-1.761.505-.545 1.28-.82 2.306-.82.98 0 1.723.273 2.217.811.75.82.662 1.998.66 2.02 0 .464.372.84.833.84.46 0 .833-.376.833-.84 0-4.454-4.366-4.506-4.553-4.506h-.02c-4.438 0-4.565 3.795-4.565 4.227 0 1.261.968 3.394 4.596 3.394 1.225 0 2.102.267 2.61.794.303.309.468.729.457 1.163.009.229-.013 1.025-.608 1.645-.515.538-1.338.812-2.43.812h-.018c-.984 0-1.74-.28-2.249-.829-.449-.5-.688-1.157-.669-1.831 0-.47-.378-.85-.844-.85-.466 0-.844.38-.844.85-.037 1.117.379 2.202 1.152 3.004.851.877 2.067 1.36 3.427 1.36 3.53 0 4.781-2.24 4.781-4.158-.003-2.23-1.875-3.669-4.777-3.669zm56.975 0c-1.166 0-2.01-.254-2.503-.753-.248-.237-.397-.56-.417-.904 0-.01-.064-1.014.627-1.761.502-.545 1.277-.82 2.305-.82.978 0 1.722.273 2.216.811.75.82.662 1.998.66 2.021.016.451.384.809.832.809.448 0 .816-.358.832-.809 0-4.454-4.364-4.506-4.55-4.506h-.021c-4.439 0-4.567 3.794-4.567 4.227 0 1.26.969 3.394 4.599 3.394 1.222 0 2.1.267 2.61.795.302.309.467.728.457 1.16.007.23-.013 1.026-.61 1.646-.514.538-1.337.812-2.43.812h-.017c-.986 0-1.74-.28-2.25-.829-.448-.501-.687-1.157-.668-1.831 0-.47-.378-.85-.844-.85-.466 0-.844.38-.844.85-.038 1.117.378 2.202 1.152 3.004.85.877 2.066 1.36 3.427 1.36 3.53 0 4.782-2.24 4.782-4.16-.002-2.226-1.877-3.666-4.778-3.666zM87.85 6.135c-2.691 0-4.569 1.9-4.569 4.62l.01 8c-.011.313.148.607.416.767.268.16.601.16.87 0 .267-.16.427-.454.416-.768v-3.39h2.857c2.505-.038 4.515-2.093 4.515-4.614 0-2.522-2.01-4.577-4.515-4.615zm-.012 7.538h-2.842l-.006-2.922c0-1.76 1.144-2.946 2.849-2.946 1.61 0 2.914 1.314 2.914 2.934s-1.305 2.934-2.914 2.934h-.001zm12.73-7.538c-3.767 0-6.822 3.073-6.824 6.866 0 3.792 3.052 6.868 6.819 6.87 3.767.001 6.822-3.072 6.824-6.865-.004-3.79-3.054-6.864-6.82-6.87zm0 12.071c-2.09.001-3.976-1.265-4.776-3.21-.8-1.943-.36-4.182 1.119-5.67 1.478-1.488 3.7-1.933 5.632-1.128 1.93.806 3.19 2.704 3.188 4.808-.004 2.87-2.313 5.195-5.163 5.2zm14.419-3.119c2.055-.818 3.244-2.992 2.831-5.178-.412-2.187-2.309-3.77-4.52-3.774-2.705 0-4.595 1.912-4.595 4.647l.007 7.976c0 .477.384.863.857.863s.857-.386.857-.863v-3.342h2.721l2.264 3.729c.173.307.514.478.862.432.348-.045.634-.298.724-.64.062-.222.03-.46-.086-.658l-1.922-3.192zm-4.565-1.372v-2.94c0-1.773 1.151-2.965 2.866-2.965 1.62 0 2.932 1.322 2.932 2.953 0 1.63-1.312 2.952-2.932 2.952h-2.866zm17.772-6.453c0 .475-.38.861-.852.863h-2.963V18.75c0 .477-.384.863-.857.863s-.857-.386-.857-.863V8.124h-2.962c-.473 0-.857-.386-.857-.862s.384-.862.857-.862h7.64c.471.002.852.388.85.862zM8.278 13.063c.016-2.987 2.432-5.396 5.399-5.385 2.967.011 5.364 2.439 5.358 5.426-.005 2.987-2.412 5.405-5.38 5.405-2.975-.013-5.38-2.449-5.375-5.445h-.002zM145.833 0v19.404c-.02 1.669-.67 3.267-1.819 4.47-1.293 1.357-3.086 2.116-4.955 2.096H6.771C2.589 25.97 0 22.495 0 19.258V0h145.833zM8.262 9.08V2.461c0-.353-.285-.639-.635-.639-.35 0-.635.286-.635.64v10.845c0 3.15 2.556 6.551 6.687 6.551 4 0 6.688-3.513 6.688-6.794 0-4.143-3.472-6.703-6.688-6.703-3.011 0-4.754 1.836-5.417 2.72zm24.932 3.35H26.91c-.365 0-.66.298-.66.665 0 .368.295.665.66.665h6.976c.176.014.35-.05.476-.174.127-.124.195-.297.186-.475 0-3.366-2.466-6.216-5.777-6.679-3.311-.463-6.455 1.602-7.368 4.84-.912 3.238.685 6.657 3.744 8.014 3.06 1.357 6.644.236 8.401-2.627.195-.305.11-.71-.19-.91-.144-.1-.322-.135-.493-.1-.171.035-.321.138-.417.286-1.37 2.26-4.158 3.196-6.6 2.215-2.443-.981-3.827-3.593-3.275-6.182.552-2.589 2.878-4.399 5.505-4.285 2.627.115 4.79 2.12 5.117 4.747zm3.807 7.428h.005c.711 0 1.247-.574 1.284-1.086V7.48c-.037-.512-.572-1.083-1.283-1.086h-.006c-.72 0-1.243.564-1.283 1.097v11.28c.045.523.572 1.082 1.288 1.085l-.005.001zm20.783-4.088V7.442c-.043-.518-.561-1.076-1.271-1.079-.698 0-1.235.572-1.27 1.095v8.32c0 .227-.15.952-.823 1.274-1.403.672-2.125-.5-2.16-.55l-5.146-8.17c-.676-1.184-2.597-2.603-5.116-1.658-2.47 1.022-2.53 3.626-2.53 3.657v8.494c.042.497.545 1.035 1.291 1.035.685 0 1.26-.541 1.26-1.18v-8.128c-.004-.06-.086-1.462 1.581-1.615.965-.055 1.455.963 1.466.987.194.316 4.694 7.474 5.172 8.206.379.58 1.571 1.73 3.332 1.73.601-.007 1.195-.13 1.75-.364 2.603-1.066 2.474-3.709 2.473-3.727h-.01zM144.869.972H65.071V18.95c0 2.491-1.603 5.076-4.313 6.05H138.2c1.9 0 3.632-.726 4.881-2.044 1.13-1.184 1.77-2.757 1.79-4.399L144.868.972z" transform="translate(-50 -17) translate(50 17)"/>
            </g>
        </g>
    </g>
</svg>
