<svg xmlns="http://www.w3.org/2000/svg" width="169" height="38" fill="none"><path fill="#fff" d="M25.79 12.16h12.136C37.926 5.442 32.495 0 25.789 0H13.654c0 6.718 5.431 12.16 12.137 12.16M12.136 24.32V0C5.431 0 0 5.442 0 12.16s5.431 12.16 12.136 12.16M25.79 13.68V38c6.705 0 12.136-5.442 12.136-12.16s-5.431-12.16-12.137-12.16M12.136 25.84H0C0 32.558 5.431 38 12.136 38h12.136c0-6.719-5.43-12.16-12.136-12.16m50.121-8.585a12 12 0 0 0-2.435-1.313 51 51 0 0 0-2.53-.945 35 35 0 0 1-2.13-.721q-.978-.369-1.57-.897-.593-.529-.593-1.298 0-.576.353-1.009.352-.432 1.025-.705.673-.271 1.634-.272.864 0 1.553.272t1.17.737.704 1.121.225 1.522l4.517-1.025q-.033-1.858-.93-3.317-.897-1.457-2.675-2.29t-4.5-.833c-1.816 0-3.177.257-4.341.769q-1.747.769-2.644 2.13-.897 1.362-.897 3.188 0 1.538.593 2.611a5.3 5.3 0 0 0 1.618 1.794q1.025.722 2.338 1.233 1.313.513 2.627.993 1.345.45 2.339.897.992.45 1.538.993.543.546.544 1.378 0 .705-.4 1.185-.401.48-1.122.77-.72.287-1.714.287-1.248 0-2.162-.496a3.45 3.45 0 0 1-1.41-1.41q-.496-.913-.464-2.13l-4.517 1.09q0 1.475.496 2.707.496 1.234 1.538 2.13 1.041.897 2.626 1.394t3.733.496q2.85 0 4.71-.8 1.856-.802 2.739-2.227.88-1.425.881-3.188c0-1.175-.224-2.087-.673-2.867a6.04 6.04 0 0 0-1.794-1.954m15.025-1.585h-.705q-.225-1.603-.85-2.756-.625-1.154-1.617-1.794-.994-.64-2.403-.64-1.89 0-3.364 1.089t-2.275 3.123-.8 4.854q0 2.626.736 4.597.736 1.97 2.13 3.06 1.393 1.088 3.251 1.088 1.377 0 2.339-.544.96-.544 1.633-1.602.674-1.059 1.122-2.66h.736a33 33 0 0 0-.544 2.163q-.225 1.041-.353 1.922a11.4 11.4 0 0 0-.128 1.65V33h5.094V10.96h-3.94l-.064 4.71zm-1.09 4.132q0 .45-.11 1.009a8 8 0 0 1-.337 1.17q-.225.609-.56 1.12a3.2 3.2 0 0 1-.801.85q-.465.336-1.106.336a2.06 2.06 0 0 1-1.442-.56q-.609-.56-.96-1.619-.353-1.057-.353-2.562 0-1.602.368-2.675t1.026-1.634 1.457-.56c.534 0 1.014.16 1.378.48q.545.481.865 1.203.32.72.448 1.505t.129 1.361v.577zm15.826-.962q0 1.218-.176 2.18a7.4 7.4 0 0 1-.48 1.65q-.306.688-.817 1.056a1.98 1.98 0 0 1-1.186.368q-1.121 0-1.681-1.057-.56-1.058-.56-3.204v-8.906h-5.094v9.77q0 3.91 1.346 5.752 1.345 1.842 3.972 1.842 1.473 0 2.435-.56.96-.561 1.585-1.81t1.009-3.268h.705l.096 5.19h3.941V10.927h-5.094v7.913m20.582 4.646a50 50 0 0 1-.048-2.114v-3.46q0-2.564-.705-4.197t-2.21-2.434q-1.507-.802-3.94-.802-1.603 0-2.932.369-1.33.367-2.275 1.105a5.6 5.6 0 0 0-1.505 1.778q-.561 1.041-.72 2.387l4.516.93q.127-.898.481-1.506.351-.608.913-.93.56-.32 1.33-.32 1.12.001 1.585.56.464.561.464 1.298c0 .491-.111.828-.336 1.073q-.336.37-.96.577-.626.21-1.554.433a26 26 0 0 0-2.755.673q-1.248.386-2.21.96-.961.578-1.457 1.475-.498.897-.497 2.274 0 1.506.61 2.53a4.14 4.14 0 0 0 1.617 1.57q1.008.545 2.323.545 1.315-.001 2.323-.512a4.66 4.66 0 0 0 1.698-1.474q.689-.96 1.009-2.274h.641q.095 1.089.224 2.034.128.945.353 1.81h4.42a96 96 0 0 1-.24-2.13 39 39 0 0 1-.16-2.227zm-5.494-.432q-.32.433-.721.753-.402.32-.865.496a2.8 2.8 0 0 1-1.009.177q-.864 0-1.409-.497-.544-.496-.544-1.361 0-.578.272-.945.272-.369.753-.625a5.6 5.6 0 0 1 1.106-.433q.624-.176 1.281-.32a8 8 0 0 0 1.594-.527l.025 2.4a3.5 3.5 0 0 1-.481.88zm23.418.785h-.641l-2.146-12.911h-5.895l-2.114 12.91h-.609l-1.73-12.91h-5.286l3.653 16.915h6.759l1.858-12.878h.609l1.858 12.878h6.823l3.717-16.915h-5.19zm21.594-1.748q-.448-1.104-1.266-1.826-.817-.72-2.098-1.057-1.282-.336-3.172-.048v-.577a9 9 0 0 0 2.884-1.153 9.7 9.7 0 0 0 2.21-1.875 12.4 12.4 0 0 0 1.57-2.274 15.3 15.3 0 0 0 1.025-2.354h-5.734q-.256.866-.673 1.746-.417.882-.96 1.746a15 15 0 0 1-1.234 1.682 18 18 0 0 1-1.521 1.585V5h-4.998v22.842h4.998v-6.727h1.121q1.249 0 1.89.512.64.513.993 1.506.352.992.609 2.499l.288 2.21h5.383l-.609-3.395a13.4 13.4 0 0 0-.705-2.355zm16.385 3.622a39 39 0 0 1-.161-2.227 50 50 0 0 1-.048-2.114v-3.46q0-2.564-.705-4.197t-2.21-2.434-3.941-.802q-1.602 0-2.932.369-1.329.367-2.275 1.105a5.6 5.6 0 0 0-1.505 1.778q-.56 1.041-.721 2.387l4.517.93q.128-.898.481-1.506.351-.608.913-.93.56-.32 1.33-.32 1.121.001 1.585.56.465.561.465 1.298c0 .491-.112.828-.336 1.073q-.337.37-.961.577-.625.21-1.553.433a26 26 0 0 0-2.755.673 10 10 0 0 0-2.211.96q-.961.578-1.457 1.475t-.497 2.274q0 1.506.609 2.53a4.15 4.15 0 0 0 1.618 1.57q1.01.545 2.323.545 1.315-.001 2.323-.512a4.7 4.7 0 0 0 1.699-1.474q.688-.96 1.008-2.274h.641q.096 1.089.224 2.034t.353 1.81h4.421a86 86 0 0 1-.24-2.13zm-5.655-2.66q-.32.433-.721.754-.4.32-.865.496-.465.177-1.008.177-.865 0-1.41-.497-.544-.496-.544-1.361 0-.578.272-.945.272-.369.753-.625.48-.256 1.105-.433.624-.176 1.281-.32a8.2 8.2 0 0 0 1.594-.527l.025 2.4a3.4 3.4 0 0 1-.481.88z"/></svg>